<svg width="14" height="14" viewBox="0 0 14 14" fill="none" xmlns="http://www.w3.org/2000/svg">
<path d="M13.5814 0.146012C13.6529 0.217546 13.701 0.309076 13.7194 0.408519C13.7378 0.507962 13.7256 0.610644 13.6844 0.703012L8.02744 13.431C7.98791 13.52 7.92325 13.5956 7.84139 13.6483C7.75953 13.7011 7.66404 13.7288 7.56664 13.7281C7.46925 13.7273 7.37419 13.6982 7.29315 13.6442C7.2121 13.5901 7.1486 13.5136 7.11044 13.424L5.06944 8.65801L0.302438 6.61601C0.213162 6.57761 0.137013 6.51403 0.0833018 6.43304C0.0295909 6.35204 0.000647288 6.25715 1.07303e-05 6.15997C-0.000625828 6.06279 0.0270723 5.96753 0.0797176 5.88584C0.132363 5.80415 0.207673 5.73958 0.296438 5.70001L13.0244 0.0430117C13.1167 0.00205954 13.2192 -0.0100187 13.3184 0.00836516C13.4176 0.026749 13.509 0.0747343 13.5804 0.146012H13.5814Z" fill="#107C28"/>
</svg>
