<svg width="25" height="24" viewBox="0 0 25 24" fill="none" xmlns="http://www.w3.org/2000/svg">
<g clip-path="url(#clip0_1_750)">
<path d="M16.5 21.9999V18.1299C16.5375 17.6531 16.4731 17.1737 16.311 16.7237C16.1489 16.2737 15.8929 15.8634 15.56 15.5199C18.7 15.1699 22 13.9799 22 8.51994C21.9997 7.12376 21.4627 5.78114 20.5 4.76994C20.9559 3.54844 20.9236 2.19829 20.41 0.999938C20.41 0.999938 19.23 0.649938 16.5 2.47994C14.208 1.85876 11.792 1.85876 9.5 2.47994C6.77 0.649938 5.59 0.999938 5.59 0.999938C5.07638 2.19829 5.04414 3.54844 5.5 4.76994C4.53013 5.78864 3.99252 7.1434 4 8.54994C4 13.9699 7.3 15.1599 10.44 15.5499C10.111 15.8899 9.85726 16.2953 9.69531 16.7399C9.53335 17.1844 9.46681 17.658 9.5 18.1299V21.9999M9.5 18.9999C4.5 20.4999 4.5 16.4999 2.5 15.9999L9.5 18.9999Z" stroke="white" stroke-width="2" stroke-linecap="round" stroke-linejoin="round"/>
</g>
<defs>
<clipPath id="clip0_1_750">
<rect width="24" height="24" fill="white" transform="translate(0.5)"/>
</clipPath>
</defs>
</svg>
