<svg width="25" height="24" viewBox="0 0 25 24" fill="none" xmlns="http://www.w3.org/2000/svg">
<g clip-path="url(#clip0_1_741)">
<path d="M23.5 3.00005C22.5424 3.67552 21.4821 4.19216 20.36 4.53005C19.7577 3.83756 18.9573 3.34674 18.067 3.12397C17.1767 2.90121 16.2395 2.95724 15.3821 3.2845C14.5247 3.61176 13.7884 4.19445 13.273 4.95376C12.7575 5.71308 12.4877 6.61238 12.5 7.53005V8.53005C10.7426 8.57561 9.00127 8.18586 7.43101 7.39549C5.86074 6.60513 4.51032 5.43868 3.5 4.00005C3.5 4.00005 -0.5 13 8.5 17C6.44053 18.398 3.98716 19.099 1.5 19C10.5 24 21.5 19 21.5 7.50005C21.4991 7.2215 21.4723 6.94364 21.42 6.67005C22.4406 5.66354 23.1608 4.39276 23.5 3.00005V3.00005Z" stroke="white" stroke-width="2" stroke-linecap="round" stroke-linejoin="round"/>
</g>
<defs>
<clipPath id="clip0_1_741">
<rect width="24" height="24" fill="white" transform="translate(0.5)"/>
</clipPath>
</defs>
</svg>
