<svg width="175" height="32" viewBox="0 0 175 32" fill="none" xmlns="http://www.w3.org/2000/svg">
<g clip-path="url(#clip0_17_20)">
<path d="M52.4417 19.0988C52.4417 20.0964 52.3057 21.0495 52.3057 21.4396H36.2109C36.347 25.0902 39.1093 27.2638 43.3504 27.2638C46.5799 27.2638 49.9456 26.3498 51.5071 25.4357V30.084C49.8983 30.9088 46.8106 31.756 42.9363 31.756C35.2882 31.756 30.3551 27.0241 30.3551 20.3361C30.3551 13.7762 35.3769 8.91064 41.8775 8.91064C48.7922 8.91622 52.4417 13.6926 52.4417 19.0988ZM41.7947 13.191C38.4764 13.191 36.4712 15.621 36.2228 18.3575H47.0058C47.0413 15.6043 45.2432 13.1743 41.7947 13.1743V13.191Z" fill="#F9F9FA"/>
<path d="M63.1242 22.2478C58.9482 21.0328 55.9907 19.3831 55.9907 15.3034C55.9907 11.48 59.4037 8.91626 64.5202 8.91626C66.9071 8.9177 69.2705 9.36082 71.4762 10.2204V14.8686C69.6292 13.969 67.606 13.436 65.5316 13.3025C64.7741 13.2919 64.0172 13.3516 63.2721 13.4809C62.1246 13.7818 61.1545 14.3893 61.1545 15.5207C61.1545 16.9085 62.5386 17.6498 65.3483 18.43C70.4174 19.907 72.8603 21.6013 72.8603 25.3745C72.8603 29.4598 69.3113 31.7616 63.9227 31.7616C61.2824 31.7864 58.6649 31.2989 56.2332 30.3292V25.5918C58.5798 26.7291 61.1571 27.3808 63.7926 27.5035C65.8215 27.5035 67.7083 26.896 67.7083 25.2463C67.6847 23.7248 66.1231 23.1173 63.1242 22.2478Z" fill="#F9F9FA"/>
<path d="M81.7269 0.0490723V13.5255C82.5697 12.153 83.7754 11.0095 85.2267 10.2067C86.6779 9.40377 88.3252 8.96885 90.0079 8.94421C95.4438 8.94421 97.9813 12.0318 97.9813 17.6331V31.2266H92.3562V18.5416C92.3562 16.0224 91.7114 13.7652 88.5765 13.7652C84.7495 13.7652 81.7387 16.6522 81.7387 20.4532V31.2043H76.4152V3.20917L81.7269 0.0490723Z" fill="#F9F9FA"/>
<path d="M101.536 3.20917L106.86 0.0490723V12.6059C108.102 10.7388 111.166 8.91631 114.715 8.91631C120.63 8.91631 125.315 13.3472 125.315 20.3417C125.315 27.2472 120.618 31.7616 114.626 31.7616C111.03 31.7616 108.256 30.4351 106.86 28.9749V31.2043H101.536V3.20917ZM107.297 20.3417C107.297 25.029 110.568 27.2472 113.656 27.2472C117.388 27.2472 119.967 24.3769 119.967 20.3417C119.967 16.3066 117.388 13.4364 113.656 13.4364C110.551 13.4364 107.28 15.649 107.28 20.3417H107.297Z" fill="#F9F9FA"/>
<path d="M134.169 9.48486H128.846V31.1988H134.169V9.48486Z" fill="#F9F9FA"/>
<path d="M141.616 9.48481V3.20917L146.94 0.0490723V9.48481H153.588V13.6927H146.94L147.052 23.6412C147.052 26.3332 148.525 27.2472 150.234 27.2472C151.665 27.2006 153.071 26.89 154.375 26.3331V30.764C152.633 31.4785 150.744 31.8192 148.844 31.7616C145.343 31.7616 141.841 30.1565 141.563 25.4637C141.563 24.767 141.516 24.0313 141.516 23.2901V13.6927H138.014V9.48481H141.616Z" fill="#F9F9FA"/>
<path d="M165.075 22.2478C160.881 21.0328 157.93 19.3831 157.93 15.3034C157.93 11.48 161.343 8.91626 166.453 8.91626C168.842 8.91784 171.207 9.36094 173.415 10.2204V14.8686C171.577 13.9727 169.565 13.4398 167.5 13.3025C166.743 13.2916 165.986 13.3514 165.241 13.4809C164.087 13.7818 163.123 14.3893 163.123 15.5207C163.123 16.9085 164.501 17.6498 167.317 18.43C172.386 19.907 174.829 21.6013 174.829 25.3745C174.829 29.4598 171.28 31.7616 165.886 31.7616C163.245 31.7868 160.628 31.2992 158.196 30.3292V25.5919C160.543 26.7291 163.12 27.3808 165.755 27.5035C167.784 27.5035 169.671 26.896 169.671 25.2463C169.636 23.7248 168.068 23.1173 165.075 22.2478Z" fill="#F9F9FA"/>
<path d="M5.65999 31.1987H0.336487V3.2092L16.0231 12.6895L26.7647 2.6853H33.7207L16.5909 18.993L5.65999 12.5669V31.1987Z" fill="#F9F9FA"/>
<path d="M131.513 6.37482C133.369 6.37482 134.873 4.9575 134.873 3.20914C134.873 1.46078 133.369 0.043457 131.513 0.043457C129.658 0.043457 128.154 1.46078 128.154 3.20914C128.154 4.9575 129.658 6.37482 131.513 6.37482Z" fill="#D4408E"/>
</g>
<defs>
<clipPath id="clip0_17_20">
<rect width="174.463" height="31.7181" fill="white" transform="translate(0.336487 0.043457)"/>
</clipPath>
</defs>
</svg>
